<?xml version="1.0" encoding="UTF-8"?>
<svg id="Layer_1" xmlns="http://www.w3.org/2000/svg" version="1.1" viewBox="0 0 425.2 425.2">
  <!-- Generator: Adobe Illustrator 29.8.3, SVG Export Plug-In . SVG Version: 2.1.1 Build 3)  -->
  <polygon points="239.32 254.7 11.86 303.05 11.86 308.27 19.16 309.77 19.59 340.29 14 348.24 13.57 357.47 221.56 401.31 239.32 393.79 239.32 379.61 233.59 372.94 385.92 297.18 408.77 298.27 415.97 293.65 415.97 287.09 410.27 280.53 409.6 261.99 412.36 260.47 412.36 258.57 272.76 247.77 239.32 254.7" style="fill: #231f20;"/>
  <g>
    <polygon points="309.91 335.91 308.58 301.3 327.88 291.24 328.39 259.38 331.51 150.87 175.37 154.99 179.38 263.7 129.92 274.25 117.01 158.34 117.01 119.69 380.49 100.45 400.46 105.15 400.46 148.88 372.77 298.14 370.93 314.76 346.95 328.92 331.87 337.91 309.91 335.91" style="fill: #231f20;"/>
    <path d="M380.32,102.59l18.01,4.24v41.85l-27.66,149.14-1.73,15.64-23.07,13.62-14.49,8.64-19.41-1.76-1.21-31.4,19.23-10.03.53-33.12,3.18-110.73-160.53,4.24,4.02,109.07-45.42,9.68-12.64-113.46v-36.56l261.18-19.07M380.66,98.31l-.65.05-261.18,19.07-3.94.29v40.74l.03.23,12.64,113.46.52,4.67,4.59-.98,45.42-9.68,3.49-.75-.13-3.57-3.86-104.78,151.74-4.01-3.05,106.23v.03s0,.03,0,.03l-.49,30.59-16.98,8.86-2.39,1.24.1,2.69,1.21,31.4.14,3.73,3.72.34,19.41,1.76,1.38.12,1.19-.71,14.49-8.64,23.05-13.61,1.83-1.08.23-2.11,1.72-15.49,27.63-148.99.07-.38v-45.61l-3.28-.77-18.01-4.24-.63-.15h0Z" style="fill: #fff;"/>
  </g>
  <g>
    <polygon points="207.84 198.57 207.84 39.89 242.33 34.8 263.53 40.07 263.53 197.12 241.71 198.57 207.84 198.57" style="fill: #231f20;"/>
    <path d="M242.22,36.96l19.18,4.77v153.4l-19.77,1.31h-31.67V41.73l32.26-4.77M242.43,32.63l-.83.12-32.26,4.77-3.63.54v162.64h36.21s19.77-1.32,19.77-1.32l3.97-.26V38.4l-3.23-.8-19.18-4.77-.82-.2h0Z" style="fill: #fff;"/>
  </g>
  <rect x="223" y="191.74" width="26.5" height="22.71" style="fill: #231f20;"/>
  <rect x="233.43" y="212.56" width="5.64" height="28.39" style="fill: #231f20;"/>
</svg>