<?xml version="1.0" encoding="UTF-8"?>
<svg id="Layer_1" xmlns="http://www.w3.org/2000/svg" version="1.1" viewBox="0 0 425.2 425.2">
  <!-- Generator: Adobe Illustrator 29.8.3, SVG Export Plug-In . SVG Version: 2.1.1 Build 3)  -->
  <path d="M67.15,49.9C-28.52-45.77,48.63,203.43,2.93,203.43" style="fill: none; stroke: #231f20; stroke-miterlimit: 10; stroke-width: 8px;"/>
  <path d="M419.76,390.19l-33.71-33.71,8.36-8.36-6.44-6.44c.43-.06.8-.21,1.06-.47,1.6-1.6-.69-6.48-5.1-10.9-4.42-4.42-9.3-6.7-10.9-5.1-.27.27-.42.63-.48,1.06l-83.56-83.56,20.16-20.16-18.76-18.76-13.09-1.99c-2.85-.43-5.52-1.66-7.7-3.54L76.23,24.97h0c-11.99,7.2-22.02,17.24-29.22,29.22h0s173.28,193.36,173.28,193.36c1.88,2.18,3.11,4.85,3.54,7.7l1.99,13.09,18.76,18.76,20.16-20.16,105.42,105.42,8.36-8.36,33.71,33.71,10.04,2.51-2.51-10.04Z" style="fill: #231f20;"/>
</svg>