<?xml version="1.0" encoding="UTF-8"?>
<svg id="Layer_1" xmlns="http://www.w3.org/2000/svg" version="1.1" viewBox="0 0 425.2 425.2">
  <!-- Generator: Adobe Illustrator 29.8.3, SVG Export Plug-In . SVG Version: 2.1.1 Build 3)  -->
  <path d="M133.22,180.59l113.05-4.54c1.35-.05,2.51.94,2.65,2.28.7,6.43,2.59,24.88,3.21,42.06.6,16.37.27,28.15.09,32.7-.05,1.21-.94,2.22-2.13,2.42l-153.73,26.16-.43,6.5-2.69,10.05,7.45,5.06s-6.82,3.22-18.28,7.68c-11.47,4.46-24.34-10.14-24.34-10.14l1.28-12.86-45.48,7.74c-5.73.97-7.28,8.47-2.41,11.65l49.32,32.12c5.24,3.42,11.63,4.6,17.75,3.28l311.86-67c6.3-1.35,6.86-10.12.78-12.27l-3.32-1.17c-1-.35-1.67-1.28-1.71-2.33l-1.4-40.94c-.05-1.4,1.04-2.58,2.44-2.65l4.29-.21c.59-.03,1.15-.26,1.59-.66l10.39-9.4c1.77-1.6.59-4.54-1.8-4.47l-16.42.49c-1.39.04-2.56-1.04-2.64-2.43l-1.67-31.35c-.07-1.38.96-2.57,2.33-2.69l18.67-1.67c.37-.03.72-.14,1.04-.33,2.58-1.49,13.65-9.45,13.65-36.43,0-30.53-21.13-36.71-30.02-36.32-5.64.25-9.26,3.91-11.15,6.56-.9,1.26-2.67,1.46-3.82.43-3.27-2.91-10.22-7.62-21.35-8.15-15.72-.75-41.24-.41-42.81-.39-.06,0-.1,0-.16,0l-191.82,15.28" style="fill: #231f20;"/>
  <path d="M66.71,249.88l.6,23.11s-2.48.47-2.72,4.73,1.36,4.61,1.36,4.61l-1.38,15.6s7.23,10.82,15.97,6.73l7.33-2.84-11.65-7.92v-45.21l-9.51,1.19Z" style="fill: #231f20;"/>
  <polygon points="90.13 286.64 86.41 300.83 82.68 286.64 82.68 241.91 90.13 241.91 90.13 286.64" style="fill: #231f20;"/>
  <path d="M132.84,194.95c-.49-1.16-1.2-2.21-2.07-3.1v-8.7c0-1.38,1.09-2.51,2.46-2.56l-17.74-75.9c-1.2.1-2.31-.66-2.66-1.82l-3.49-11.64c-.33-1.08-1.32-1.83-2.46-1.83h-16.78c-1.42,0-2.56,1.15-2.56,2.56v15.55c0,1.49-1.26,2.66-2.74,2.56l-6.08-.42c-1.34-.09-2.39-1.21-2.39-2.56l-.02-25.18h-14.78v23.99c0,1.42-1.15,2.56-2.56,2.56h-10.58c-1.42,0-2.56,1.15-2.56,2.56v11.31c0,.65-.25,1.28-.69,1.75l-1.26,1.35c-.44.48-.69,1.1-.69,1.75v40.1c0,.43.11.84.31,1.22l1.2,2.22c.17.32.28.68.3,1.04l4.82,70.55c.06.84.53,1.6,1.26,2.03l14.89,8.78c.49.29,1.06.41,1.62.34l27.67-3.46c.75-.09,1.43-.52,1.84-1.15l23.77-36.86,1.4-1.98c1.54,1.15,3.44,1.84,5.51,1.84,5.09,0,9.22-4.13,9.22-9.22,0-3.22-1.65-6.05-4.15-7.7Z" style="fill: #231f20;"/>
</svg>