<?xml version="1.0" encoding="UTF-8"?>
<svg id="Layer_1" xmlns="http://www.w3.org/2000/svg" version="1.1" viewBox="0 0 425.2 425.2">
  <!-- Generator: Adobe Illustrator 29.8.3, SVG Export Plug-In . SVG Version: 2.1.1 Build 3)  -->
  <g>
    <path d="M27.15,215.79c-9.72,8.74-17.17,30.22-17.17,30.22l2.79,3.1-2.54,2.28,3,3.34-7.66,11.29,2.94,3.27,2.94,3.27,12.04-6.42,3,3.34,2.54-2.28,2.79,3.1s22.15-5.14,31.86-13.88,31.58-28.41,31.58-28.41c-9.83-15.21-22.1-28.7-36.55-40.64,0,0-21.86,19.67-31.58,28.41Z" style="fill: #231f20;"/>
    <path d="M275.63,65.24l-27.69-30.79-15.86-1.63s-17.28,11.86-26.9,18.84c-9.62,6.98-34.32,15.81-34.32,15.81,0,0-6.48,12.52-13.7,19.01-7.22,6.49-16.1,9.46-16.1,9.46,0,0-2.88,6.1-12.95,16.67-10.08,10.57-22.76,13.77-22.76,13.77,0,0-2.9,3.11-4.33,6.91-1.43,3.8-2.63,8.15-2.63,8.15l-36.05,39.71c15.67,12.35,28.62,27.2,39.53,43.95l43.3-31.66h0c25.35-18.03,32.18,22.44,34.52,25.04s11.24-6.58,11.24-6.58c0,0,2.56-4.02,8.41-4.58s9.44,6.39,24.21,17.32c14.77,10.93,35.54,18.34,44.47,29.58,8.93,11.24,4.79,17.08.11,21.29s-.86,6.88-.86,6.88c0,0-7.55,7.03-15.7,20.7-8.15,13.68.79,16.79.79,16.79,0,0-3.22,27.16.39,35.27,3.61,8.11,33.69,32,39.82,32.33,6.12.32,58.84-55.38,66.74-64.01,7.89-8.63,32.41-32.22,34.94-40.33,2.53-8.11-10.09-23.16-18-32.3-7.92-9.15-26.34-19.54-32.58-23.62-6.23-4.08-22.01,2.13-25.92-.62-3.9-2.76-4.23-7.87-22.38-27.74-18.15-19.86-57.68-40.99-59.4-50.79-1.72-9.79,14.22-23.28,20.33-28.78,6.11-5.5,19.23-19.28,23.66-32.34,4.42-13.05-4.31-21.72-4.31-21.72Z" style="fill: #231f20;"/>
  </g>
  <g>
    <path d="M104.09,365.28c-8.64,0-16.79-3.78-22.37-10.37-5.18-6.12-7.59-13.89-6.78-21.88.81-7.98,4.73-15.11,11.04-20.07l169.41-128.46c24.97-20.38,40.26-38.4,47.9-56.51l-4.91-.82.2-4.54-5.13-1.33.57-4.75-8.09-2.33,26.48-22.4c2.45-8.06,6.58-14.24,13.35-19.97,13.74-11.62,26.37-13.36,32.68-13.36,3.38,0,5.42.48,5.5.5l2.64.64-19.73,37.78,5.9,10.29,23.05,11.79,11.8-4.55,17.21-34.66,2.06,2.85c.3.41,7.28,10.18,9.59,24.09,2.15,12.94.49,31.94-19.67,49-15.78,13.35-25.53,14.68-36.82,16.23-15.45,2.11-34.67,4.74-79.77,42.89l-156.42,142.32c-5.4,4.92-12.4,7.62-19.7,7.62h0ZM353.45,127.09s-.17,0-.24.15l-11.56,22.51c-.07.13-.02.3.12.37.04.02.08.03.12.03.03,0,.17,0,.24-.15l11.56-22.51c.03-.07.04-.14.02-.21-.02-.07-.07-.12-.13-.16-.04-.02-.08-.03-.12-.03ZM347.04,123.8s-.17,0-.24.15l-11.56,22.51c-.07.13-.02.3.12.37.04.02.08.03.12.03.03,0,.17,0,.24-.15l11.56-22.51c.03-.07.04-.14.02-.21-.02-.07-.07-.12-.13-.16-.04-.02-.08-.03-.12-.03ZM340.62,120.51s-.17,0-.24.15l-11.56,22.51c-.07.13-.02.3.12.37.04.02.08.03.12.03.03,0,.17,0,.24-.15l11.56-22.51c.04-.07.04-.14.02-.21-.02-.07-.07-.12-.13-.16-.04-.02-.08-.03-.12-.03ZM334.21,117.22s-.17,0-.24.15l-11.56,22.51c-.07.13-.02.3.12.36.04.02.08.03.12.03.03,0,.17,0,.24-.15l11.56-22.51c.07-.13.02-.3-.12-.37-.04-.02-.08-.03-.12-.03Z" style="fill: #231f20;"/>
    <path d="M358.43,60.61c3.17,0,5,.44,5,.44l-19.01,36.41,6.8,11.84,24.46,12.51,13.45-5.19,16.02-32.25s27.83,38.45-9.73,70.22c-37.34,31.58-39.35-6.24-116.59,59.11l-156.47,142.37c-5.21,4.74-11.75,7.07-18.27,7.07-7.7,0-15.36-3.26-20.75-9.62-9.94-11.75-8.14-29.39,3.95-38.9l169.38-128.44c30.6-24.97,43.27-43.87,49.3-59.18l-1.23-.94-4.17-.7.19-4.39-5-1.3.57-4.71-6.01-1.73,23.93-20.24h0c1.99-6.87,5.33-13.18,12.86-19.56,13.04-11.03,24.89-12.86,31.3-12.86M322.65,142.4c.87,0,1.71-.48,2.13-1.3l11.56-22.51c.6-1.18.14-2.62-1.04-3.23-.35-.18-.72-.27-1.09-.27-.87,0-1.71.48-2.13,1.3l-11.56,22.51c-.6,1.18-.14,2.62,1.04,3.23.35.18.72.27,1.09.27M329.06,145.69c.87,0,1.71-.48,2.13-1.3l11.56-22.51c.6-1.18.14-2.62-1.04-3.23-.35-.18-.72-.27-1.09-.27-.87,0-1.71.48-2.13,1.3l-11.56,22.51c-.6,1.18-.14,2.62,1.04,3.23.35.18.72.27,1.09.27M335.47,148.98c.87,0,1.71-.48,2.13-1.3l11.56-22.51c.6-1.18.14-2.62-1.04-3.23-.35-.18-.72-.27-1.09-.27-.87,0-1.71.48-2.13,1.3l-11.56,22.51c-.6,1.18-.14,2.62,1.04,3.23.35.18.72.27,1.09.27M341.89,152.28c.87,0,1.71-.48,2.13-1.3l11.56-22.51c.6-1.18.14-2.62-1.04-3.23-.35-.18-.72-.27-1.09-.27-.87,0-1.71.48-2.13,1.3l-11.56,22.51c-.6,1.18-.14,2.62,1.04,3.23.35.18.72.27,1.09.27M358.43,56.36s0,0,0,0c-6.6,0-19.79,1.8-34.05,13.86-6.93,5.86-11.23,12.18-13.82,20.37l-22.97,19.43-6.07,5.13,7.64,2.2,2.53.73-.13,1.11-.45,3.69,3.6.93,1.67.43-.04.95-.16,3.75,3.71.62.36.06c-7.82,16.94-22.63,33.98-46.19,53.22l-169.32,128.39-.03.02-.03.02c-6.77,5.32-10.97,12.96-11.84,21.52-.87,8.56,1.71,16.89,7.27,23.46,5.98,7.07,14.73,11.12,23.99,11.12,7.83,0,15.33-2.9,21.13-8.18l156.42-142.32c44.58-37.7,63.46-40.28,78.63-42.35,11.13-1.52,21.65-2.96,37.91-16.71,20.93-17.7,22.64-37.49,20.4-50.97-2.4-14.4-9.66-24.57-9.97-24.99l-4.12-5.7-3.13,6.3-15.28,30.77-10.14,3.91-21.65-11.07-5.01-8.73,17.93-34.34,2.52-4.82-5.29-1.28c-.24-.06-2.44-.56-6-.56h0Z" style="fill: #fff;"/>
  </g>
</svg>