<?xml version="1.0" encoding="UTF-8"?>
<svg xmlns="http://www.w3.org/2000/svg" xmlns:svg="http://www.w3.org/2000/svg" xmlns:sodipodi="http://sodipodi.sourceforge.net/DTD/sodipodi-0.dtd" xmlns:rdf="http://www.w3.org/1999/02/22-rdf-syntax-ns#" xmlns:inkscape="http://www.inkscape.org/namespaces/inkscape" xmlns:dc="http://purl.org/dc/elements/1.1/" xmlns:cc="http://creativecommons.org/ns#" version="1.1" viewBox="0 0 335.33 136.76">
  <!-- Generator: Adobe Illustrator 29.8.3, SVG Export Plug-In . SVG Version: 2.1.1 Build 3)  -->
  <g id="svg3509" inkscape:export-filename="/home/fabrizio/Desktop/kicad_logo2.png" inkscape:export-xdpi="130.52866" inkscape:export-ydpi="130.52866" inkscape:version="0.91 r13725" sodipodi:docname="kicad_logo_paths.svg">
    <g id="layer1" inkscape:groupmode="layer" inkscape:label="Layer 1">
      <path id="rect3438-4-1-6-9-8-4" d="M11.13,18.35h114.39c.51,0,.93.43.93.97v109.8c0,.54-.41.97-.93.97H11.13c-.51,0-.93-.43-.93-.97V19.32c0-.54.41-.97.93-.97Z" inkscape:connector-curvature="0" style="fill: #314cb0; stroke: #1d2d68; stroke-width: 4.85px;"/>
      <path id="path3008" d="M39.72,64.64l16.93-21.41c3.46-4.36,5.19-7.63,5.19-9.79,0-.79-.1-1.42-.29-1.89h29.55c-2.24,1.26-5.05,3.91-8.43,7.96-.9,1.06-2.5,3.01-4.78,5.84l-22.18,27.6,26.48,36.45c1.61,2.2,3.66,4.68,6.13,7.43.67.71,1.63,1.55,2.89,2.54h-30.32c.24-.9.35-1.71.35-2.42,0-2.16-1.49-5.29-4.48-9.38l-17.05-23.24v23.53c0,5.47,1.1,9.3,3.3,11.5H15.3c1.53-1.53,2.52-3.28,2.95-5.25.24-1.1.35-3.17.35-6.19V42.99c0-3.03-.12-5.09-.35-6.19-.43-1.97-1.42-3.72-2.95-5.25h27.72c-2.2,2.2-3.3,6.02-3.3,11.44v21.65" inkscape:connector-curvature="0" style="fill: #fff;"/>
      <path id="path3010" d="M118.93,54.85v54.14c0,2.83.08,4.68.24,5.54.31,1.77,1.14,3.38,2.48,4.84h-25.95c1.34-1.45,2.16-3.07,2.48-4.84.16-.87.24-2.71.24-5.54v-43.88c0-2.83-.08-4.66-.24-5.49-.31-1.73-1.12-3.32-2.42-4.78h23.18" inkscape:connector-curvature="0" style="fill: #fff;"/>
      <path id="path3012" d="M195.55,115.48c-6.25,3.54-13.25,5.31-21,5.31-12.31,0-22.12-4.56-29.43-13.68-6.8-8.45-10.2-18.99-10.2-31.61,0-14.16,4.17-25.4,12.5-33.74,7.71-7.71,16.83-11.56,27.37-11.56,6.88,0,13.92,2.01,21.12,6.02,1.85,1.02,3.34,1.59,4.48,1.71l-10.56,15.34c-3.46-4.4-8.08-6.61-13.86-6.61-9.04,0-14.94,5.58-17.69,16.75-.9,3.66-1.36,7.69-1.36,12.09,0,12.5,3.17,21.04,9.5,25.6,2.95,2.12,6.09,3.18,9.44,3.18,5.98,0,11.29-2.56,15.92-7.67l9.79,16.04c-.47-.12-2.48.83-6.02,2.83" inkscape:connector-curvature="0" style="fill: #1b2b63;"/>
      <path id="path3014" d="M238.44,101.26v-10.2c-1.49-.28-3.07-.41-4.72-.41-3.3,0-6.13.59-8.49,1.77-2.99,1.49-4.48,3.74-4.48,6.72,0,2.24.85,4.03,2.54,5.37,1.53,1.22,3.46,1.83,5.78,1.83,4.29,0,7.41-1.69,9.38-5.07M261.62,119.37h-22v-5.01c-4.05,4.13-9.26,6.23-15.63,6.31-4.52.04-8.63-.96-12.33-3.01-3.89-2.16-6.72-5.23-8.49-9.2-1.26-2.83-1.89-6.04-1.89-9.61,0-8.18,3.99-14.21,11.97-18.11,4.6-2.24,11.05-3.36,19.35-3.36,1.18,0,3.22.08,6.13.24,0-6.72-2.93-10.09-8.79-10.09-4.99,0-10.24,1.45-15.75,4.36l-5.84-14.1c1.3,0,3.83-.47,7.61-1.42l8.02-2.01c2.71-.55,5.66-.83,8.85-.83,12.58,0,20.49,4.01,23.71,12.03,1.57,3.93,2.36,8.79,2.36,14.57v28.84c0,2.83.08,4.68.24,5.54.31,1.77,1.14,3.38,2.48,4.84" inkscape:connector-curvature="0" style="fill: #1b2b63;"/>
      <path id="path3016" d="M306.74,101.26v-29.43c-2.6-2.2-5.49-3.3-8.67-3.3-6.92,0-10.38,6.72-10.38,20.17,0,10.85,3.17,16.28,9.5,16.28,3.3,0,6.49-1.24,9.55-3.72M304.09,26.18h23.18v82.81c0,4.92.9,8.38,2.71,10.38h-22.06v-5.01c-4.29,4.21-9.75,6.31-16.4,6.31-5.62,0-10.5-1.69-14.63-5.07-3.89-3.18-6.74-7.53-8.55-13.03-1.26-3.85-1.89-8.14-1.89-12.86,0-15.65,3.99-26.34,11.97-32.09,3.77-2.71,8.12-4.07,13.03-4.07,6.49,0,11.58,1.75,15.28,5.25v-22.35c0-2.83-.08-4.66-.24-5.49-.31-1.73-1.12-3.32-2.42-4.78" inkscape:connector-curvature="0" style="fill: #1b2b63;"/>
      <path id="path3552-6-3-7" d="M120.62,18.38c0,6.6-5.37,11.95-11.99,11.95s-11.99-5.35-11.99-11.95,5.37-11.95,11.99-11.95,11.99,5.35,11.99,11.95Z" inkscape:connector-curvature="0" style="fill: #f70;"/>
    </g>
  </g>
</svg>