<svg xmlns="http://www.w3.org/2000/svg" viewBox="0 0 100 100">
  <path d="M63.6,16.5h0c.8-3.8,3.1-7.9,14.1-7.9V2.1h-42.1v6.4c10.4,0,15.6.6,14.9,8-20.5,2.6-38.8,16.6-42.4,33.5-3.5,16.8,8.7,30.8,27.9,33.5l.1.1c-.8,3.1-2.9,7.8-13.7,7.8v6.6h38.2v-6.6c-5.5,0-13.3-.2-11.7-7.3l.1-.5h0c20.7-2.4,39.4-16.5,43-33.6,3.7-16.9-8.7-31-28.4-33.5ZM37.4,77.8h0c-11.9-3.1-18.9-14.3-16-27.8s14.7-24.8,28-27.8h0l-.6,2.7-6.3,29.9s-5.1,23-5.1,23ZM78.8,50.1c-2.9,13.7-15,25.2-28.5,28h0l.5-2.3,6.2-29.2,3.4-15.5,1-4.7s.5-1.7,1-4.2c12.1,2.9,19.2,14.3,16.4,27.9Z"/>
</svg>