<svg xmlns="http://www.w3.org/2000/svg" fill="none" viewBox="0 0 221 24"><path fill="#2D2D2D" d="m21.298 12.855-3.35 10.656h-5.085l-3.35-10.656-1.885 10.656H0L4.188.49h8.016l2.992 9.557 3.41-9.557h8.016L30.81 23.51h-7.628l-1.884-10.656ZM47.084 24c-1.735 0-3.33-.305-4.786-.916a11.954 11.954 0 0 1-3.8-2.504 11.72 11.72 0 0 1-2.482-3.817c-.598-1.465-.897-3.053-.897-4.763s.299-3.298.897-4.763c.598-1.466 1.426-2.728 2.483-3.787A11.701 11.701 0 0 1 42.298.916C43.754.306 45.348 0 47.084 0c.957 0 1.864.112 2.722.336.857.224 1.665.53 2.423.916v7.847a6.969 6.969 0 0 0-2.034-1.282c-.758-.326-1.596-.489-2.513-.489-.698 0-1.346.122-1.944.367a4.42 4.42 0 0 0-1.556.977 4.383 4.383 0 0 0-.987 1.465c-.24.57-.359 1.191-.359 1.863a4.734 4.734 0 0 0 1.346 3.359 5.09 5.09 0 0 0 1.556.977 5.503 5.503 0 0 0 1.944.336c.917 0 1.755-.163 2.513-.489a6.97 6.97 0 0 0 2.034-1.282v7.817c-1.496.855-3.21 1.282-5.145 1.282ZM78.166 12.855l-3.35 10.656H69.73l-3.35-10.656-1.885 10.656h-7.628L61.056.49h8.017l2.99 9.557 3.41-9.557h8.017l4.188 23.022h-7.627l-1.885-10.656ZM109.91.489v7.694h5.504V.49h7.718V23.51h-7.718v-8h-5.504v8h-7.717V.49h7.717ZM140.489 24c-1.735 0-3.34-.295-4.816-.886a11.95 11.95 0 0 1-3.798-2.503 11.713 11.713 0 0 1-2.483-3.817c-.598-1.466-.898-3.064-.898-4.794 0-1.73.3-3.328.898-4.794.598-1.466 1.426-2.728 2.483-3.786a11.304 11.304 0 0 1 3.798-2.504c1.476-.61 3.081-.916 4.816-.916 1.735 0 3.331.305 4.786.916 1.476.59 2.742 1.425 3.799 2.504 1.077 1.058 1.915 2.32 2.513 3.786.598 1.466.897 3.064.897 4.794 0 1.73-.299 3.328-.897 4.794a11.475 11.475 0 0 1-2.513 3.817c-1.057 1.058-2.323 1.893-3.799 2.503-1.455.59-3.051.886-4.786.886Zm0-7.328a4.25 4.25 0 0 0 1.705-.336c.519-.244.968-.57 1.347-.977.378-.428.678-.926.897-1.496a5.15 5.15 0 0 0 .329-1.863 5.15 5.15 0 0 0-.329-1.863 4.5 4.5 0 0 0-.897-1.465 3.784 3.784 0 0 0-1.347-.977 3.946 3.946 0 0 0-1.705-.367c-.638 0-1.216.122-1.735.367-.518.224-.967.55-1.346.977a4.483 4.483 0 0 0-.897 1.465 5.615 5.615 0 0 0-.299 1.863c0 .672.1 1.293.299 1.863.219.57.518 1.068.897 1.496a4.36 4.36 0 0 0 1.346.977 4.335 4.335 0 0 0 1.735.336ZM167.885 24c-1.655 0-3.141-.265-4.457-.794-1.316-.53-2.443-1.252-3.38-2.168a8.177 8.177 0 0 1-1.765-2.748c-.419-1.058-.628-2.33-.628-3.817V.49h7.717v13.526c0 .896.229 1.568.688 2.015.479.428 1.087.642 1.825.642.718 0 1.316-.214 1.795-.642.478-.447.717-1.12.717-2.015V.49h7.718v13.984c0 1.486-.209 2.759-.628 3.817a8.177 8.177 0 0 1-1.765 2.748c-.937.916-2.064 1.639-3.38 2.168-1.316.53-2.802.794-4.457.794ZM191.933 24c-1.655 0-3.18-.193-4.576-.58a14.278 14.278 0 0 1-3.799-1.649l-.599-.366 2.633-5.802c1.097.814 2.124 1.384 3.081 1.71.977.305 1.814.458 2.512.458s1.257-.102 1.676-.305c.438-.204.658-.54.658-1.008a.824.824 0 0 0-.27-.641 1.736 1.736 0 0 0-.658-.397 3.596 3.596 0 0 0-.897-.275 84.796 84.796 0 0 0-1.047-.244l-1.197-.245c-1.635-.346-2.961-1.038-3.978-2.076-.997-1.038-1.496-2.473-1.496-4.305 0-1.18.23-2.27.688-3.267a8.135 8.135 0 0 1 1.945-2.626 8.942 8.942 0 0 1 2.901-1.74C190.627.213 191.834 0 193.13 0c1.256 0 2.453.142 3.589.427 1.157.265 2.224.632 3.201 1.1l.748.366-2.603 5.832c-.578-.407-1.276-.753-2.094-1.038-.817-.305-1.575-.458-2.273-.458-.578 0-1.077.081-1.496.244-.418.163-.628.458-.628.886 0 .224.06.407.18.55.139.122.319.233.538.335.239.082.499.153.778.214.299.061.608.122.927.183l1.017.214c.898.183 1.725.448 2.483.794a6.359 6.359 0 0 1 1.974 1.313c.559.53.987 1.19 1.286 1.985.32.773.479 1.69.479 2.748 0 1.18-.239 2.28-.718 3.297a8.256 8.256 0 0 1-1.974 2.657c-.838.733-1.825 1.313-2.961 1.74-1.117.407-2.334.611-3.65.611ZM221 .489v6.167h-6.73V9.07h6.281v5.862h-6.281v2.412H221v6.168h-14.448V.49H221Z"></path></svg>