<?xml version="1.0" encoding="UTF-8"?>
<svg id="Layer_1" xmlns="http://www.w3.org/2000/svg" version="1.1" viewBox="0 0 345.96 132.5">
  <!-- Generator: Adobe Illustrator 29.8.3, SVG Export Plug-In . SVG Version: 2.1.1 Build 3)  -->
  <path d="M1.34,87.39c-1.78-3.01-1.78-6.76,0-9.77l23.84-40.38c1.73-2.94,4.89-4.74,8.31-4.74h48.03c3.41,0,6.57,1.8,8.31,4.74l23.84,40.38c1.78,3.01,1.78,6.76,0,9.77l-23.84,40.38c-1.73,2.93-4.89,4.74-8.31,4.74h-48.03c-3.41,0-6.57-1.8-8.31-4.74l-1.98-3.35,27.48-45.17c1.09-1.8,3.05-2.89,5.15-2.89h24.55c1.33,2.92,4.27,4.95,7.69,4.95,4.66,0,8.44-3.77,8.44-8.42s-3.78-8.42-8.44-8.42c-3.31,0-6.18,1.9-7.56,4.68h-24.67c-4.63,0-8.93,2.41-11.33,6.36l-25.46,41.86-8.26-13.98,27.85-45.78c1.09-1.8,3.05-2.89,5.15-2.89h22.91c1.33,2.92,4.27,4.95,7.69,4.95,4.66,0,8.44-3.77,8.44-8.42s-3.78-8.42-8.44-8.42c-3.31,0-6.18,1.9-7.56,4.68h-23.04c-4.63,0-8.93,2.41-11.33,6.36L6.61,96.32l-5.28-8.93Z" style="fill: #f26a50;"/>
  <path d="M58.1,20v8.1h-8.1c-11.05,0-20-8.95-20-20V0h8.1c11.05,0,20,8.95,20,20Z" style="fill: #b2be36;"/>
  <path d="M62.22,22.54v5.56h5.56c8.28,0,15-6.72,15-15v-5.56h-5.56c-8.28,0-15,6.72-15,15Z" style="fill: #b2be36;"/>
  <g>
    <path d="M132.72,31.67c-1.38,0-2.5,1.12-2.5,2.5v58c0,1.38,1.12,2.5,2.5,2.5h12.82c1.38,0,2.5-1.12,2.5-2.5v-14.24h8.41c.83,0,1.6.41,2.07,1.09l9.93,14.56c.47.68,1.24,1.09,2.07,1.09h13.01c2.01,0,3.2-2.26,2.06-3.91l-10.91-15.9c3.81-1.83,6.78-4.35,8.92-7.55,2.28-3.48,3.42-7.59,3.42-12.33s-1.14-8.94-3.42-12.42c-2.28-3.54-5.52-6.24-9.72-8.1-4.14-1.86-9.09-2.79-14.85-2.79h-26.3ZM148.04,64.16h9.9c3.72,0,6.48-.81,8.28-2.43,1.86-1.62,2.79-3.87,2.79-6.75s-.93-5.22-2.79-6.84c-1.8-1.62-4.56-2.43-8.28-2.43h-9.9v18.45Z" style="fill: #231f20; fill-rule: evenodd;"/>
    <path d="M199.34,31.67c-1.38,0-2.5,1.12-2.5,2.5v58c0,1.38,1.12,2.5,2.5,2.5h12.82c1.38,0,2.5-1.12,2.5-2.5v-58c0-1.38-1.12-2.5-2.5-2.5h-12.82Z" style="fill: #231f20;"/>
    <path d="M229.84,94.67c-1.38,0-2.5-1.12-2.5-2.5v-58c0-1.38,1.12-2.5,2.5-2.5h26.3c5.76,0,10.71.93,14.85,2.79,4.2,1.86,7.44,4.56,9.72,8.1,2.28,3.48,3.42,7.62,3.42,12.42s-1.14,8.85-3.42,12.33-5.52,6.18-9.72,8.1c-4.14,1.86-9.09,2.79-14.85,2.79h-10.98v13.97c0,1.38-1.12,2.5-2.5,2.5h-12.82ZM255.06,64.16h-9.9v-18.45h9.9c3.72,0,6.48.81,8.28,2.43,1.86,1.62,2.79,3.9,2.79,6.84s-.93,5.13-2.79,6.75c-1.8,1.62-4.56,2.43-8.28,2.43Z" style="fill: #231f20; fill-rule: evenodd;"/>
    <path d="M310.46,69.38v11.52h30.44c1.38,0,2.5,1.12,2.5,2.5v8.77c0,1.38-1.12,2.5-2.5,2.5h-45.58c-1.38,0-2.5-1.12-2.5-2.5v-58c0-1.38,1.12-2.5,2.5-2.5h44.41c1.38,0,2.5,1.12,2.5,2.5v8.77c0,1.38-1.12,2.5-2.5,2.5h-29.27v10.62h25.49c1.38,0,2.5,1.12,2.5,2.5v8.32c0,1.38-1.12,2.5-2.5,2.5h-25.49Z" style="fill: #231f20;"/>
    <path d="M166.91,130.61c1.85.7,3.87,1.06,6.06,1.06s4.24-.35,6.06-1.06c1.85-.7,3.45-1.69,4.81-2.97,1.36-1.28,2.41-2.78,3.17-4.5.78-1.75,1.17-3.65,1.17-5.71s-.39-3.95-1.17-5.67c-.76-1.72-1.81-3.22-3.17-4.5-1.36-1.3-2.96-2.31-4.81-3.01-1.82-.7-3.85-1.06-6.06-1.06s-4.21.35-6.06,1.06c-1.85.7-3.47,1.71-4.85,3.01-1.36,1.28-2.41,2.78-3.17,4.5-.76,1.72-1.13,3.61-1.13,5.67s.38,3.95,1.13,5.67c.76,1.72,1.81,3.23,3.17,4.54,1.38,1.28,3,2.27,4.85,2.97ZM175.86,124.7c-.89.37-1.85.55-2.89.55s-2.02-.18-2.93-.55c-.89-.36-1.67-.89-2.35-1.56-.65-.7-1.17-1.54-1.56-2.5-.36-.96-.55-2.03-.55-3.21s.18-2.27.55-3.21c.39-.96.91-1.79,1.56-2.46.68-.7,1.46-1.24,2.35-1.6.91-.36,1.89-.55,2.93-.55s2.01.18,2.89.55c.91.36,1.69.9,2.35,1.6.68.68,1.2,1.5,1.56,2.46.39.94.59,2.01.59,3.21s-.2,2.24-.59,3.21c-.36.96-.89,1.8-1.56,2.5-.65.68-1.43,1.2-2.35,1.56Z" style="fill: #231f20; fill-rule: evenodd;"/>
    <path d="M131.22,103.74c-.55,0-1,.45-1,1v25.37c0,.55.45,1,1,1h5.74c.55,0,1-.45,1-1v-6.27h3.7c.33,0,.64.16.83.44l4.37,6.4c.19.27.5.44.83.44h5.86c.8,0,1.28-.9.82-1.57l-4.83-7.04c1.66-.8,2.95-1.89,3.87-3.28.99-1.51,1.49-3.3,1.49-5.36s-.5-3.88-1.49-5.4c-.99-1.54-2.4-2.71-4.22-3.52-1.8-.81-3.95-1.21-6.45-1.21h-11.51ZM137.96,117.86h4.3c1.62,0,2.82-.35,3.6-1.06.81-.7,1.21-1.68,1.21-2.93s-.4-2.27-1.21-2.97c-.78-.7-1.98-1.06-3.6-1.06h-4.3v8.02Z" style="fill: #231f20; fill-rule: evenodd;"/>
    <path d="M193.24,131.12c-.55,0-1-.45-1-1v-25.37c0-.55.45-1,1-1h13c3.6,0,6.28.66,8.06,1.99,1.77,1.3,2.66,3.02,2.66,5.16,0,1.41-.38,2.65-1.13,3.71-.63.9-1.49,1.64-2.58,2.23.17.06-.17-.07,0,0,1.43.57,3.05,1.62,3.83,2.74.81,1.09,1.21,2.44,1.21,4.03,0,2.37-.96,4.22-2.89,5.55-1.9,1.3-4.69,1.96-8.37,1.96h-13.78ZM199.9,125.53h6.49c1.33,0,2.33-.22,3.01-.66.7-.47,1.06-1.17,1.06-2.11s-.35-1.63-1.06-2.07c-.68-.47-1.68-.7-3.01-.7h-6.49v5.55ZM199.9,109.34v5.28h5.32c1.3,0,2.28-.22,2.93-.66.65-.44.98-1.11.98-1.99s-.33-1.54-.98-1.96c-.65-.44-1.63-.66-2.93-.66h-5.32Z" style="fill: #231f20; fill-rule: evenodd;"/>
    <path d="M230.03,130.61c1.85.7,3.87,1.06,6.06,1.06s4.24-.35,6.06-1.06c1.85-.7,3.45-1.69,4.81-2.97,1.35-1.28,2.41-2.78,3.17-4.5.78-1.75,1.17-3.65,1.17-5.71s-.39-3.95-1.17-5.67c-.76-1.72-1.81-3.22-3.17-4.5-1.36-1.3-2.96-2.31-4.81-3.01-1.82-.7-3.84-1.06-6.06-1.06s-4.21.35-6.06,1.06c-1.85.7-3.47,1.71-4.85,3.01-1.36,1.28-2.41,2.78-3.17,4.5-.76,1.72-1.13,3.61-1.13,5.67s.38,3.95,1.13,5.67c.76,1.72,1.81,3.23,3.17,4.54,1.38,1.28,3,2.27,4.85,2.97ZM238.99,124.7c-.89.37-1.85.55-2.89.55s-2.02-.18-2.93-.55c-.89-.36-1.67-.89-2.35-1.56-.65-.7-1.17-1.54-1.56-2.5-.37-.96-.55-2.03-.55-3.21s.18-2.27.55-3.21c.39-.96.91-1.79,1.56-2.46.68-.7,1.46-1.24,2.35-1.6.91-.36,1.89-.55,2.93-.55s2.01.18,2.89.55c.91.36,1.69.9,2.35,1.6.68.68,1.2,1.5,1.56,2.46.39.94.59,2.01.59,3.21s-.19,2.24-.59,3.21c-.36.96-.89,1.8-1.56,2.5-.65.68-1.43,1.2-2.35,1.56Z" style="fill: #231f20; fill-rule: evenodd;"/>
    <path d="M261.8,131.12c-.55,0-1-.45-1-1v-20.23h-7.41c-.55,0-1-.45-1-1v-4.14c0-.55.45-1,1-1h22.52c.55,0,1,.45,1,1v4.14c0,.55-.45,1-1,1h-7.37v20.23c0,.55-.45,1-1,1h-5.74Z" style="fill: #231f20;"/>
    <path d="M280.8,103.74c-.55,0-1,.45-1,1v25.37c0,.55.45,1,1,1h5.74c.55,0,1-.45,1-1v-25.37c0-.55-.45-1-1-1h-5.74Z" style="fill: #231f20;"/>
    <path d="M306.7,131.67c-2.16,0-4.17-.34-6.02-1.02-1.82-.7-3.41-1.69-4.77-2.97-1.33-1.28-2.37-2.78-3.13-4.5-.76-1.75-1.13-3.66-1.13-5.75s.38-3.99,1.13-5.71c.76-1.75,1.8-3.26,3.13-4.54,1.36-1.28,2.95-2.25,4.77-2.93,1.85-.7,3.86-1.06,6.02-1.06,2.53,0,4.78.44,6.76,1.33,1.71.76,3.18,1.8,4.4,3.12.36.39.31.99-.09,1.34l-3.47,3.14c-.42.38-1.06.33-1.47-.06-.69-.68-1.44-1.22-2.23-1.63-1.04-.55-2.22-.82-3.52-.82-1.12,0-2.15.18-3.09.55-.94.36-1.75.9-2.42,1.6-.65.68-1.17,1.5-1.57,2.46-.37.96-.55,2.03-.55,3.21s.18,2.24.55,3.21c.39.96.91,1.8,1.57,2.5.68.68,1.49,1.2,2.42,1.56.94.37,1.97.55,3.09.55,1.3,0,2.48-.27,3.52-.82.79-.41,1.54-.95,2.23-1.63.4-.4,1.05-.44,1.47-.06l3.46,3.13c.39.36.44.96.08,1.35-1.22,1.3-2.68,2.34-4.39,3.12-1.98.89-4.24,1.33-6.76,1.33Z" style="fill: #231f20;"/>
    <path d="M324.78,130.84c2.09.55,4.25.82,6.49.82,2.71,0,4.95-.4,6.73-1.21,1.8-.81,3.14-1.88,4.03-3.21.91-1.36,1.37-2.83,1.37-4.42,0-1.43-.29-2.62-.86-3.56-.55-.96-1.28-1.73-2.19-2.31-.91-.6-1.93-1.07-3.05-1.41-1.1-.36-2.2-.66-3.32-.9-1.1-.23-2.11-.46-3.05-.66-.91-.23-1.65-.52-2.23-.86-.55-.36-.82-.85-.82-1.45,0-.47.14-.89.43-1.25.29-.36.76-.65,1.41-.86.65-.23,1.51-.35,2.58-.35,1.2,0,2.44.18,3.71.55.95.25,1.91.61,2.88,1.06.54.25,1.18.02,1.41-.52l1.62-3.91c.19-.46.01-1-.44-1.23-1.16-.58-2.46-1.03-3.88-1.35-1.72-.42-3.48-.63-5.28-.63-2.68,0-4.93.4-6.73,1.21-1.8.81-3.15,1.88-4.07,3.21-.89,1.33-1.33,2.82-1.33,4.46,0,1.46.29,2.67.86,3.64.57.94,1.32,1.71,2.23,2.31.91.57,1.92,1.04,3.01,1.41,1.12.36,2.23.66,3.32.9,1.12.23,2.14.47,3.05.7.91.23,1.65.53,2.23.9.57.36.86.86.86,1.49,0,.44-.16.83-.47,1.17-.29.31-.76.57-1.41.78-.65.18-1.51.27-2.58.27-1.59,0-3.19-.25-4.81-.74-1.17-.38-2.25-.84-3.22-1.37-.54-.29-1.22-.09-1.47.47l-1.73,3.88c-.2.44-.05.96.37,1.21,1.19.69,2.63,1.27,4.34,1.75Z" style="fill: #231f20;"/>
  </g>
</svg>